A woman, attended by two midwives, is giving birth in a small village in India. When the child's cry rings, the father bangs on a steel plate to attract the attention of all the villagers, who assemble, eager to hear the good news. But when the midwife announces that the child is a daughter, the banging stops, followed by a stunned silence. Shortly thereafter the father takes the baby and drowns it in a Calderon of milk. This practice continues on and as a result, many years later there are men and boys everywhere and no women. A widowed man, Ramsharan, ponders his plight and that of his two grown son, who he is unable to get married. No marriage has taken in this village for 15 years, save for one, which was annulled as the young 14-year old bride turned out to be a 14 year old boy. But there is hope when a friend informs Ramsharan that he has located a bride for his eldest, a beautiful young woman named Kalki, who lives nearby, sheltered by her father. Ramsharan pays a substantial ... Written by rAjOo @ IMDb

General 
Unique ID : 244550085841780440761954430051462267660 (0xB7FAA2216CA3720DB73E76D663A1C30C) 
Complete name : Matrubhoomi.2003.DVDRip.x264.mkv 
Format : Matroska 
Format version : Version 4 / Version 2 
File size : 1.48 GiB 
Duration : 1h 31mn 
Overall bit rate : 2 306 Kbps 
Encoded date : UTC 2013-02-02 12:57:57 
Writing application : mkvmerge v6.0.0 ('Coming Up For Air') built on Jan 20 2013 09:52:00 
Writing library : libebml v1.3.0 + libmatroska v1.4.0 

Video 
ID : 1 
Format : AVC 
Format/Info : Advanced Video Codec 
Format profile : High@L3.1 
Format settings, CABAC : Yes 
Format settings, ReFrames : 11 frames 
Codec ID : V_MPEG4/ISO/AVC 
Duration : 1h 31mn 
Bit rate : 2 005 Kbps 
Width : 714 pixels 
Height : 556 pixels 
Display aspect ratio : 1.85:1 
Original display aspect ratio : 1.85:1 
Frame rate mode : Constant 
Frame rate : 25.000 fps 
Color space : YUV 
Chroma subsampling : 4:2:0 
Bit depth : 8 bits 
Scan type : Progressive 
Bits/(Pixel*Frame) : 0.202 
Stream size : 1.28 GiB (87%) 
Writing library : x264 core 120 
Encoding settings : cabac=1 / ref=11 / deblock=1:-3:-3 / analyse=0x3:0x133 / me=umh / subme=11 / psy=1 / psy_rd=1.00:0.00 / mixed_ref=1 / me_range=32 / chroma_me=1 / trellis=2 / 8x8dct=1 / cqm=0 / deadzone=21,11 / fast_pskip=0 / chroma_qp_offset=-2 / threads=12 / sliced_threads=0 / nr=0 / decimate=1 / interlaced=0 / bluray_compat=0 / constrained_intra=0 / bframes=9 / b_pyramid=2 / b_adapt=2 / b_bias=0 / direct=3 / weightb=1 / open_gop=0 / weightp=2 / keyint=250 / keyint_min=25 / scenecut=40 / intra_refresh=0 / rc_lookahead=250 / rc=crf / mbtree=1 / crf=18.5 / qcomp=0.60 / qpmin=3 / qpmax=69 / qpstep=4 / ip_ratio=1.40 / aq=2:1.00 
Language : English 
Default : Yes 
Forced : No 
Color primaries : BT.601 NTSC 
Transfer characteristics : BT.709 
Matrix coefficients : BT.601 

Audio 
ID : 2 
Format : AC-3 
Format/Info : Audio Coding 3 
Mode extension : CM (complete main) 
Format settings, Endianness : Big 
Codec ID : A_AC3 
Duration : 1h 31mn 
Bit rate mode : Constant 
Bit rate : 256 Kbps 
Channel(s) : 2 channels 
Channel positions : Front: L R 
Sampling rate : 48.0 KHz 
Bit depth : 16 bits 
Compression mode : Lossy 
Stream size : 168 MiB (11%) 
Language : Hindi 
Default : Yes 
Forced : No 

Text 
ID : 3 
Format : VobSub 
Muxing mode : zlib 
Codec ID : S_VOBSUB 
Codec ID/Info : The same subtitle format used on DVDs 
Language : Greek 
Default : No 
Forced : No 

Menu 
00:00:00.000 : en:Chapter 1 
00:10:22.400 : en:Chapter 2 
00:23:31.760 : en:Chapter 3 
00:31:02.600 : en:Chapter 4 
00:42:24.320 : en:Chapter 5 
00:53:13.280 : en:Chapter 6 
01:04:28.760 : en:Chapter 7 
01:17:06.920 : en:Chapter 8 



SUBS: English, Greek and Portuguese